<?xml version="1.0" encoding="UTF-8"?>
<svg id="Ebene_1" xmlns="http://www.w3.org/2000/svg" xmlns:xlink="http://www.w3.org/1999/xlink" version="1.1" viewBox="0 0 1000 224.47">
  <!-- Generator: Adobe Illustrator 30.3.0, SVG Export Plug-In . SVG Version: 2.1.3 Build 182)  -->
  <defs>
    <style>
      .st0 {
        fill: url(#Unbenannter_Verlauf_23482);
      }

      .st1 {
        fill: url(#Unbenannter_Verlauf_23481);
      }

      .st2 {
        fill: url(#Unbenannter_Verlauf_23486);
      }

      .st3 {
        fill: url(#Unbenannter_Verlauf_23485);
      }

      .st4 {
        fill: url(#Unbenannter_Verlauf_23487);
      }

      .st5 {
        fill: url(#Unbenannter_Verlauf_23484);
      }

      .st6 {
        fill: url(#Unbenannter_Verlauf_23483);
      }

      .st7 {
        fill: url(#Unbenannter_Verlauf_2348);
      }

      .st8 {
        fill: url(#Unbenannter_Verlauf_125);
      }

      .st9 {
        fill: url(#Unbenannter_Verlauf_124);
      }

      .st10 {
        fill: url(#Unbenannter_Verlauf_121);
      }

      .st11 {
        fill: url(#Unbenannter_Verlauf_123);
      }

      .st12 {
        fill: url(#Unbenannter_Verlauf_122);
      }

      .st13 {
        fill: url(#Unbenannter_Verlauf_12);
      }
    </style>
    <linearGradient id="Unbenannter_Verlauf_2348" data-name="Unbenannter Verlauf 2348" x1="487.91" y1="139.1" x2="565.55" y2="139.1" gradientUnits="userSpaceOnUse">
      <stop offset="0" stop-color="#ff8500"/>
      <stop offset=".5" stop-color="#ffa800"/>
      <stop offset="1" stop-color="#ff8500"/>
    </linearGradient>
    <linearGradient id="Unbenannter_Verlauf_23481" data-name="Unbenannter Verlauf 2348" x1="569.21" y1="137.02" x2="627.57" y2="137.02" xlink:href="#Unbenannter_Verlauf_2348"/>
    <linearGradient id="Unbenannter_Verlauf_23482" data-name="Unbenannter Verlauf 2348" x1="627.56" y1="147.11" x2="678.1" y2="147.11" xlink:href="#Unbenannter_Verlauf_2348"/>
    <linearGradient id="Unbenannter_Verlauf_23483" data-name="Unbenannter Verlauf 2348" x1="686.41" y1="137.42" x2="744.37" y2="137.42" xlink:href="#Unbenannter_Verlauf_2348"/>
    <linearGradient id="Unbenannter_Verlauf_23484" data-name="Unbenannter Verlauf 2348" x1="752.67" y1="147.11" x2="803.21" y2="147.11" xlink:href="#Unbenannter_Verlauf_2348"/>
    <linearGradient id="Unbenannter_Verlauf_23485" data-name="Unbenannter Verlauf 2348" x1="814.68" y1="146.71" x2="904.59" y2="146.71" xlink:href="#Unbenannter_Verlauf_2348"/>
    <linearGradient id="Unbenannter_Verlauf_23486" data-name="Unbenannter Verlauf 2348" x1="914.08" y1="134.8" x2="933.27" y2="134.8" xlink:href="#Unbenannter_Verlauf_2348"/>
    <linearGradient id="Unbenannter_Verlauf_23487" data-name="Unbenannter Verlauf 2348" x1="939.3" y1="147.11" x2="995.38" y2="147.11" xlink:href="#Unbenannter_Verlauf_2348"/>
    <linearGradient id="Unbenannter_Verlauf_12" data-name="Unbenannter Verlauf 12" x1="105.47" y1="62.74" x2="105.47" y2="130.27" gradientUnits="userSpaceOnUse">
      <stop offset="0" stop-color="#ffed64"/>
      <stop offset=".03" stop-color="#ffea61"/>
      <stop offset=".69" stop-color="#ffa71b"/>
      <stop offset="1" stop-color="#ff8d00"/>
    </linearGradient>
    <linearGradient id="Unbenannter_Verlauf_121" data-name="Unbenannter Verlauf 12" x1="105.51" y1="7.6" x2="105.51" y2="50.99" xlink:href="#Unbenannter_Verlauf_12"/>
    <linearGradient id="Unbenannter_Verlauf_122" data-name="Unbenannter Verlauf 12" x1="160.63" y1="37.88" x2="160.63" y2="69.4" xlink:href="#Unbenannter_Verlauf_12"/>
    <linearGradient id="Unbenannter_Verlauf_123" data-name="Unbenannter Verlauf 12" x1="50.25" y1="37.87" x2="50.25" y2="69.45" xlink:href="#Unbenannter_Verlauf_12"/>
    <linearGradient id="Unbenannter_Verlauf_124" data-name="Unbenannter Verlauf 12" x1="23" y1="101.15" x2="23" y2="112.31" xlink:href="#Unbenannter_Verlauf_12"/>
    <linearGradient id="Unbenannter_Verlauf_125" data-name="Unbenannter Verlauf 12" x1="187.91" y1="101.13" x2="187.91" y2="112.2" xlink:href="#Unbenannter_Verlauf_12"/>
  </defs>
  <g>
    <path d="M243.32,166.4l4.45-9.99c5.54,4.45,14.34,7.62,22.85,7.62,10.78,0,15.33-3.86,15.33-9,0-14.93-41.14-5.14-41.14-30.86,0-11.18,8.9-20.67,27.89-20.67,8.31,0,17.01,2.18,23.04,6.13l-4.06,9.99c-6.23-3.66-13.06-5.44-19.09-5.44-10.68,0-15.03,4.15-15.03,9.4,0,14.74,41.05,5.14,41.05,30.56,0,11.08-9,20.57-27.99,20.57-10.78,0-21.56-3.36-27.3-8.31Z"/>
    <path d="M303.36,147.31c0-15.83,11.87-27,28.09-27s28.19,11.18,28.19,27-11.77,27.1-28.19,27.1-28.09-11.28-28.09-27.1ZM347.17,147.31c0-10.09-6.73-16.52-15.73-16.52s-15.63,6.43-15.63,16.52,6.73,16.52,15.63,16.52,15.73-6.43,15.73-16.52Z"/>
    <path d="M369.03,100.33h12.36v73.39h-12.36v-73.39Z"/>
    <path d="M439.35,142.76v30.96h-11.67v-6.43c-2.97,4.55-8.7,7.12-16.62,7.12-12.07,0-19.68-6.63-19.68-15.82s5.93-15.73,21.96-15.73h13.65v-.79c0-7.22-4.35-11.47-13.15-11.47-5.93,0-12.07,1.98-16.02,5.24l-4.85-9c5.64-4.35,13.85-6.53,22.35-6.53,15.23,0,24.03,7.22,24.03,22.45ZM426.98,157.2v-6.13h-12.76c-8.41,0-10.68,3.17-10.68,7.02,0,4.45,3.76,7.32,10.09,7.32s11.28-2.77,13.35-8.21Z"/>
    <path d="M483.26,120.31v11.77c-1.09-.2-1.98-.3-2.87-.3-9.4,0-15.33,5.54-15.33,16.32v25.62h-12.36v-52.82h11.77v7.71c3.56-5.54,9.99-8.31,18.79-8.31Z"/>
    <path class="st7" d="M542.61,158.88h-32.14l-6.13,14.84h-16.42l30.86-69.23h15.82l30.96,69.23h-16.81l-6.13-14.84ZM537.56,146.71l-10.98-26.51-10.98,26.51h21.96Z"/>
    <path class="st1" d="M592.06,152.85l-7.42,7.32v13.55h-15.43v-73.39h15.43v41.54l22.55-21.36h18.4l-22.15,22.55,24.13,30.66h-18.69l-16.81-20.87Z"/>
    <path class="st0" d="M678.1,143.35v30.36h-14.44v-6.63c-2.87,4.85-8.41,7.42-16.22,7.42-12.46,0-19.88-6.92-19.88-16.12s6.63-15.92,22.85-15.92h12.26c0-6.63-3.96-10.48-12.26-10.48-5.64,0-11.47,1.88-15.33,4.95l-5.54-10.78c5.84-4.15,14.44-6.43,22.95-6.43,16.22,0,25.62,7.52,25.62,23.64ZM662.67,156.9v-5.44h-10.58c-7.22,0-9.5,2.67-9.5,6.23,0,3.86,3.26,6.43,8.7,6.43,5.14,0,9.59-2.37,11.37-7.22Z"/>
    <path class="st6" d="M744.37,100.33v73.39h-14.74v-6.13c-3.86,4.65-9.5,6.92-16.62,6.92-15.03,0-26.61-10.68-26.61-27.4s11.57-27.4,26.61-27.4c6.53,0,12.07,2.08,15.92,6.43v-25.81h15.43ZM729.24,147.11c0-9.2-5.93-14.74-13.55-14.74s-13.65,5.54-13.65,14.74,5.93,14.74,13.65,14.74,13.55-5.54,13.55-14.74Z"/>
    <path class="st5" d="M803.21,143.35v30.36h-14.44v-6.63c-2.87,4.85-8.41,7.42-16.22,7.42-12.46,0-19.88-6.92-19.88-16.12s6.63-15.92,22.85-15.92h12.26c0-6.63-3.96-10.48-12.26-10.48-5.64,0-11.47,1.88-15.33,4.95l-5.54-10.78c5.84-4.15,14.44-6.43,22.95-6.43,16.22,0,25.62,7.52,25.62,23.64ZM787.78,156.9v-5.44h-10.58c-7.22,0-9.5,2.67-9.5,6.23,0,3.86,3.26,6.43,8.7,6.43,5.14,0,9.59-2.37,11.37-7.22Z"/>
    <path class="st3" d="M904.59,143.25v30.46h-15.43v-28.09c0-8.6-3.86-12.56-10.09-12.56-6.92,0-11.77,4.45-11.77,13.95v26.7h-15.43v-28.09c0-8.6-3.66-12.56-10.09-12.56-6.82,0-11.67,4.45-11.67,13.95v26.7h-15.43v-53.21h14.74v6.13c3.96-4.55,9.89-6.92,16.71-6.92,7.42,0,13.75,2.87,17.51,8.7,4.25-5.44,11.18-8.7,19.19-8.7,12.66,0,21.76,7.32,21.76,23.54Z"/>
    <path class="st2" d="M914.08,104.48c0-4.85,3.86-8.6,9.59-8.6s9.59,3.56,9.59,8.31c0,5.14-3.86,8.9-9.59,8.9s-9.59-3.76-9.59-8.6ZM915.96,120.5h15.43v53.21h-15.43v-53.21Z"/>
    <path class="st4" d="M995.08,151.46h-40.25c1.48,6.63,7.12,10.68,15.23,10.68,5.64,0,9.69-1.68,13.35-5.14l8.21,8.9c-4.95,5.64-12.36,8.6-21.96,8.6-18.4,0-30.36-11.57-30.36-27.4s12.17-27.4,28.39-27.4,27.69,10.48,27.69,27.59c0,1.19-.2,2.87-.3,4.15ZM954.63,142.46h26.21c-1.09-6.73-6.13-11.08-13.06-11.08s-12.07,4.25-13.15,11.08Z"/>
  </g>
  <g>
    <path d="M104.55,194.97l-31.09-18.03-50.46-29.21-15.92-9.14c-.56-.32-.95-.5-1-1.06-.05-.64.16-1.1.71-1.52l2.36-1.79c1.58-1.2,3.59-1.16,5.49-.37l34.41,13.39,56.46,22.23,66.19-26.75,24.09-9.76c1.78-.68,3.7-.89,5.17.23l2.92,2.23c.35.27.52.59.53.96.01.31-.09.75-.47.97l-10.06,5.96v32.77c2.58,1.16,3.93,3.92,3.16,6.55-.78,2.68-3.46,4.51-6.3,3.87-2.31-.52-3.97-2.5-4.2-4.6-.26-2.41.81-4.68,3.21-5.78l-.04-30.28-48.85,28.98-34.08,20.08c-.61.36-1.45.51-2.22.06Z"/>
    <path class="st13" d="M135.83,85.15c-15.86-14.34-39.18-15.7-56.51-3.4-14.96,10.63-22.14,29.23-18.25,47.29.08.36.03.69-.12.9s-.55.41-.9.29l-8.89-3.08c-.8-.28-.72-1.25-.8-1.94-2.52-22.97,9.25-45.27,29.59-56.11,15.19-8.09,33.24-8.47,48.77-1.1,22.02,10.46,34.95,34.14,31.7,58.36-.05.35-.37.71-.74.84l-8.74,3.01c-.3.1-.64,0-.78-.11-.21-.18-.38-.57-.29-.99,3.5-16.07-1.82-32.9-14.04-43.95Z"/>
    <path d="M34.34,174.5l-.06-11.27c0-.29.13-.5.24-.59s.51-.27.75-.13l25.22,14.98,44.21,26.42c.66.39,1.22.29,1.82-.07l22.33-13.48,46.86-27.92c.38-.23.9.31.9.66l-.05,10.97c0,.75-.86.89-1.43,1.23l-68.43,41.13c-.87.52-1.47.48-2.31-.03l-64.06-38.4-5.98-3.49Z"/>
    <path d="M200.65,213.49c-5.52,2.85-12.01,2.73-17.59.1l3.22-19.09c.48-2.86,2.77-4.74,5.38-4.87,2.88-.15,5.06,1.68,5.94,4.58l3.05,19.28Z"/>
    <path class="st10" d="M108.34,50.99l-5.36-.04c-2.26-.01-3.36-2.13-3.15-4.29l3.68-37.43c.11-1.14,1.28-1.72,2.15-1.62,1.08.12,1.74.9,1.86,2.07l3.65,36.75c.21,2.15-.49,3.91-2.83,4.54Z"/>
    <path class="st12" d="M150.44,68.89c-1.47-.94-2.75-2.16-3.91-3.49-.93-1.07-1.19-3.29,0-4.34l26.09-22.9c.85-.74,2.11.12,2.52.7.73,1.04.31,1.89-.42,2.85l-20.06,26.26c-.99,1.3-2.61,1.96-4.24.92Z"/>
    <path class="st11" d="M61.03,68.59c-1.76,1.57-3.73.79-4.96-.82l-13.77-18.08-6.2-8.04c-.68-.88-1.04-1.57-.48-2.61.35-.65,1.68-1.66,2.56-.89l25.23,22.02c.96.83,1.64,1.56,1.73,2.64.1,1.2-.2,2.29-1.13,3.13l-2.97,2.66Z"/>
    <path class="st9" d="M40.86,109c-.2,1.53-1.54,3.68-3.39,3.25l-31.77-7.33c-.8-.18-1.05-1.36-1.03-1.9.03-.76.5-1.58,1.44-1.87l31.05.64c1.28.03,2.22.05,3.06.88s1.22,1.85,1.06,3.14l-.42,3.19Z"/>
    <path class="st8" d="M173.98,112.11c-1.78.41-3.47-.55-3.7-2.23l-.64-4.56c-.32-2.28,1.62-3.53,3.74-3.57l31.12-.62c1.25-.02,1.78,1.11,1.72,2.05-.07,1.18-.76,1.61-1.94,1.89l-30.3,7.04Z"/>
  </g>
</svg>