<?xml version="1.0" encoding="UTF-8"?>
<svg id="Ebene_1" xmlns="http://www.w3.org/2000/svg" xmlns:xlink="http://www.w3.org/1999/xlink" version="1.1" viewBox="0 0 1000 224.47">
  <!-- Generator: Adobe Illustrator 30.3.0, SVG Export Plug-In . SVG Version: 2.1.3 Build 182)  -->
  <defs>
    <style>
      .st0 {
        fill: url(#Unbenannter_Verlauf_23482);
      }

      .st1 {
        fill: url(#Unbenannter_Verlauf_23481);
      }

      .st2 {
        fill: url(#Unbenannter_Verlauf_23486);
      }

      .st3 {
        fill: url(#Unbenannter_Verlauf_23485);
      }

      .st4 {
        fill: url(#Unbenannter_Verlauf_23487);
      }

      .st5 {
        fill: url(#Unbenannter_Verlauf_23484);
      }

      .st6 {
        fill: url(#Unbenannter_Verlauf_23483);
      }

      .st7 {
        fill: #fff;
      }

      .st8 {
        fill: url(#Unbenannter_Verlauf_2348);
      }

      .st9 {
        fill: url(#Unbenannter_Verlauf_161);
      }

      .st10 {
        fill: url(#Unbenannter_Verlauf_164);
      }

      .st11 {
        fill: url(#Unbenannter_Verlauf_163);
      }

      .st12 {
        fill: url(#Unbenannter_Verlauf_165);
      }

      .st13 {
        fill: url(#Unbenannter_Verlauf_162);
      }

      .st14 {
        fill: url(#Unbenannter_Verlauf_16);
      }
    </style>
    <linearGradient id="Unbenannter_Verlauf_16" data-name="Unbenannter Verlauf 16" x1="107.75" y1="62.83" x2="107.75" y2="130.29" gradientUnits="userSpaceOnUse">
      <stop offset="0" stop-color="#ffed64"/>
      <stop offset=".03" stop-color="#ffea61"/>
      <stop offset=".69" stop-color="#ffa71b"/>
      <stop offset="1" stop-color="#ff8d00"/>
    </linearGradient>
    <linearGradient id="Unbenannter_Verlauf_161" data-name="Unbenannter Verlauf 16" x1="107.79" y1="7.76" x2="107.79" y2="51.09" xlink:href="#Unbenannter_Verlauf_16"/>
    <linearGradient id="Unbenannter_Verlauf_162" data-name="Unbenannter Verlauf 16" x1="162.85" y1="38" x2="162.85" y2="69.49" xlink:href="#Unbenannter_Verlauf_16"/>
    <linearGradient id="Unbenannter_Verlauf_163" data-name="Unbenannter Verlauf 16" x1="52.6" y1="37.99" x2="52.6" y2="69.54" xlink:href="#Unbenannter_Verlauf_16"/>
    <linearGradient id="Unbenannter_Verlauf_164" data-name="Unbenannter Verlauf 16" x1="25.37" y1="101.2" x2="25.37" y2="112.35" xlink:href="#Unbenannter_Verlauf_16"/>
    <linearGradient id="Unbenannter_Verlauf_165" data-name="Unbenannter Verlauf 16" x1="190.11" y1="101.18" x2="190.11" y2="112.24" xlink:href="#Unbenannter_Verlauf_16"/>
    <linearGradient id="Unbenannter_Verlauf_2348" data-name="Unbenannter Verlauf 2348" x1="484.63" y1="129.59" x2="562.19" y2="129.59" gradientUnits="userSpaceOnUse">
      <stop offset="0" stop-color="#ff8500"/>
      <stop offset=".5" stop-color="#ffa800"/>
      <stop offset="1" stop-color="#ff8500"/>
    </linearGradient>
    <linearGradient id="Unbenannter_Verlauf_23481" data-name="Unbenannter Verlauf 2348" x1="565.84" y1="127.52" x2="624.13" y2="127.52" xlink:href="#Unbenannter_Verlauf_2348"/>
    <linearGradient id="Unbenannter_Verlauf_23482" data-name="Unbenannter Verlauf 2348" x1="624.13" y1="137.6" x2="674.62" y2="137.6" xlink:href="#Unbenannter_Verlauf_2348"/>
    <linearGradient id="Unbenannter_Verlauf_23483" data-name="Unbenannter Verlauf 2348" x1="682.91" y1="127.91" x2="740.81" y2="127.91" xlink:href="#Unbenannter_Verlauf_2348"/>
    <linearGradient id="Unbenannter_Verlauf_23484" data-name="Unbenannter Verlauf 2348" x1="748.61" y1="137.6" x2="804.63" y2="137.6" xlink:href="#Unbenannter_Verlauf_2348"/>
    <linearGradient id="Unbenannter_Verlauf_23485" data-name="Unbenannter Verlauf 2348" x1="812.43" y1="137.2" x2="902.24" y2="137.2" xlink:href="#Unbenannter_Verlauf_2348"/>
    <linearGradient id="Unbenannter_Verlauf_23486" data-name="Unbenannter Verlauf 2348" x1="911.72" y1="125.3" x2="930.88" y2="125.3" xlink:href="#Unbenannter_Verlauf_2348"/>
    <linearGradient id="Unbenannter_Verlauf_23487" data-name="Unbenannter Verlauf 2348" x1="936.91" y1="137.6" x2="992.93" y2="137.6" xlink:href="#Unbenannter_Verlauf_2348"/>
  </defs>
  <g>
    <path class="st7" d="M106.83,194.91l-31.05-18.01-50.4-29.18-15.9-9.13c-.56-.32-.95-.5-1-1.06-.05-.64.16-1.1.71-1.52l2.36-1.79c1.58-1.2,3.59-1.16,5.48-.36l34.37,13.37,56.4,22.2,66.11-26.72,24.06-9.75c1.78-.67,3.7-.89,5.16.23l2.91,2.23c.35.27.52.59.53.96.01.31-.09.75-.47.97l-10.04,5.95v32.74c2.58,1.16,3.92,3.91,3.16,6.54s-3.46,4.5-6.29,3.87c-2.3-.52-3.96-2.5-4.19-4.6-.26-2.4.81-4.67,3.21-5.77l-.04-30.25-48.79,28.95-34.04,20.06c-.61.36-1.45.51-2.22.06Z"/>
    <path class="st14" d="M138.08,85.22c-15.84-14.32-39.14-15.69-56.45-3.39-14.94,10.61-22.11,29.2-18.23,47.24.08.36.03.69-.12.9s-.55.41-.9.29l-8.88-3.08c-.8-.28-.72-1.25-.8-1.94-2.52-22.94,9.24-45.22,29.56-56.05,15.17-8.08,33.2-8.46,48.72-1.09,21.99,10.45,34.91,34.11,31.66,58.29-.05.35-.37.71-.74.84l-8.73,3.01c-.3.1-.64,0-.78-.11-.21-.18-.38-.57-.29-.99,3.49-16.05-1.82-32.87-14.02-43.9Z"/>
    <path class="st7" d="M36.7,174.47l-.06-11.26c0-.29.13-.5.24-.59s.51-.27.75-.13l25.2,14.96,44.16,26.39c.66.39,1.22.29,1.82-.07l22.3-13.46,46.8-27.89c.38-.23.9.3.9.66l-.05,10.95c0,.75-.86.89-1.43,1.23l-68.35,41.09c-.87.52-1.47.48-2.31-.03l-63.99-38.35-5.98-3.49Z"/>
    <path class="st7" d="M202.83,213.42c-5.51,2.85-11.99,2.72-17.57.1l3.21-19.07c.48-2.86,2.76-4.73,5.38-4.87,2.88-.15,5.05,1.68,5.94,4.58l3.04,19.26Z"/>
    <path class="st9" d="M110.63,51.09l-5.35-.04c-2.26-.01-3.36-2.13-3.14-4.28l3.68-37.39c.11-1.14,1.28-1.72,2.15-1.62,1.08.12,1.74.9,1.86,2.07l3.64,36.71c.21,2.15-.49,3.91-2.82,4.54Z"/>
    <path class="st13" d="M152.67,68.97c-1.47-.94-2.74-2.15-3.9-3.48-.93-1.07-1.19-3.28,0-4.33l26.06-22.88c.85-.74,2.1.12,2.51.7.73,1.04.31,1.89-.41,2.84l-20.03,26.23c-.99,1.3-2.61,1.95-4.23.92Z"/>
    <path class="st11" d="M63.36,68.68c-1.76,1.57-3.72.79-4.95-.82l-13.75-18.06-6.19-8.03c-.68-.88-1.04-1.57-.48-2.61.35-.65,1.67-1.66,2.55-.89l25.2,22c.96.83,1.64,1.56,1.73,2.64.1,1.2-.2,2.29-1.13,3.12l-2.97,2.66Z"/>
    <path class="st10" d="M43.21,109.04c-.2,1.53-1.54,3.68-3.39,3.25l-31.73-7.33c-.8-.18-1.05-1.36-1.03-1.9.03-.75.5-1.57,1.43-1.87l31.02.64c1.28.03,2.21.05,3.06.88s1.22,1.84,1.05,3.13l-.42,3.19Z"/>
    <path class="st12" d="M176.19,112.15c-1.77.41-3.46-.55-3.7-2.22l-.64-4.55c-.32-2.28,1.62-3.52,3.74-3.57l31.09-.62c1.25-.02,1.78,1.11,1.72,2.05-.07,1.18-.76,1.61-1.94,1.89l-30.27,7.03Z"/>
  </g>
  <g>
    <path class="st7" d="M245.45,156.86l4.45-9.98c5.53,4.45,14.33,7.61,22.82,7.61,10.77,0,15.32-3.85,15.32-8.99,0-14.92-41.1-5.14-41.1-30.83,0-11.16,8.89-20.65,27.86-20.65,8.3,0,16.99,2.17,23.02,6.13l-4.05,9.98c-6.23-3.66-13.04-5.43-19.07-5.43-10.67,0-15.02,4.15-15.02,9.39,0,14.72,41.01,5.14,41.01,30.53,0,11.07-8.99,20.55-27.96,20.55-10.77,0-21.54-3.36-27.27-8.3Z"/>
    <path class="st7" d="M305.42,137.79c0-15.81,11.86-26.97,28.06-26.97s28.16,11.16,28.16,26.97-11.76,27.07-28.16,27.07-28.06-11.26-28.06-27.07ZM349.19,137.79c0-10.08-6.72-16.5-15.71-16.5s-15.61,6.42-15.61,16.5,6.72,16.5,15.61,16.5,15.71-6.42,15.71-16.5Z"/>
    <path class="st7" d="M371.02,90.86h12.35v73.31h-12.35v-73.31Z"/>
    <path class="st7" d="M441.26,133.25v30.93h-11.66v-6.42c-2.96,4.55-8.7,7.11-16.6,7.11-12.05,0-19.66-6.62-19.66-15.81s5.93-15.71,21.94-15.71h13.63v-.79c0-7.21-4.35-11.46-13.14-11.46-5.93,0-12.05,1.98-16.01,5.24l-4.84-8.99c5.63-4.35,13.83-6.52,22.33-6.52,15.22,0,24.01,7.21,24.01,22.43ZM428.91,147.67v-6.13h-12.75c-8.4,0-10.67,3.16-10.67,7.01,0,4.45,3.76,7.31,10.08,7.31s11.26-2.77,13.34-8.2Z"/>
    <path class="st7" d="M485.13,110.82v11.76c-1.09-.2-1.98-.3-2.86-.3-9.39,0-15.32,5.53-15.32,16.3v25.59h-12.35v-52.76h11.76v7.71c3.56-5.53,9.98-8.3,18.77-8.3Z"/>
    <path class="st8" d="M539.27,149.35h-32.11l-6.13,14.82h-16.4l30.83-69.16h15.81l30.93,69.16h-16.8l-6.13-14.82ZM534.23,137.2l-10.97-26.48-10.97,26.48h21.94Z"/>
    <path class="st1" d="M588.66,143.33l-7.41,7.31v13.54h-15.41v-73.31h15.41v41.5l22.53-21.34h18.38l-22.13,22.53,24.11,30.63h-18.67l-16.8-20.85Z"/>
    <path class="st0" d="M674.62,133.84v30.33h-14.43v-6.62c-2.86,4.84-8.4,7.41-16.2,7.41-12.45,0-19.86-6.92-19.86-16.11s6.62-15.91,22.82-15.91h12.25c0-6.62-3.95-10.47-12.25-10.47-5.63,0-11.46,1.88-15.32,4.94l-5.53-10.77c5.83-4.15,14.43-6.42,22.92-6.42,16.2,0,25.59,7.51,25.59,23.61ZM659.2,147.38v-5.43h-10.57c-7.21,0-9.49,2.67-9.49,6.23,0,3.85,3.26,6.42,8.7,6.42,5.14,0,9.58-2.37,11.36-7.21Z"/>
    <path class="st6" d="M740.81,90.86v73.31h-14.72v-6.13c-3.85,4.64-9.49,6.92-16.6,6.92-15.02,0-26.58-10.67-26.58-27.37s11.56-27.37,26.58-27.37c6.52,0,12.05,2.07,15.91,6.42v-25.79h15.41ZM725.69,137.6c0-9.19-5.93-14.72-13.53-14.72s-13.64,5.53-13.64,14.72,5.93,14.72,13.64,14.72,13.53-5.53,13.53-14.72Z"/>
    <path class="st5" d="M804.33,141.94h-40.21c1.48,6.62,7.11,10.67,15.21,10.67,5.63,0,9.68-1.68,13.34-5.14l8.2,8.89c-4.94,5.63-12.35,8.6-21.94,8.6-18.38,0-30.33-11.56-30.33-27.37s12.15-27.37,28.36-27.37,27.67,10.47,27.67,27.57c0,1.19-.2,2.87-.3,4.15ZM763.92,132.95h26.18c-1.09-6.72-6.13-11.07-13.04-11.07s-12.05,4.25-13.14,11.07Z"/>
    <path class="st3" d="M902.24,133.74v30.43h-15.42v-28.06c0-8.6-3.85-12.55-10.08-12.55-6.92,0-11.76,4.45-11.76,13.93v26.68h-15.41v-28.06c0-8.6-3.66-12.55-10.08-12.55-6.82,0-11.66,4.45-11.66,13.93v26.68h-15.42v-53.16h14.72v6.13c3.95-4.55,9.88-6.92,16.7-6.92,7.41,0,13.73,2.87,17.49,8.69,4.25-5.43,11.16-8.69,19.17-8.69,12.65,0,21.74,7.31,21.74,23.52Z"/>
    <path class="st2" d="M911.72,95.01c0-4.84,3.85-8.6,9.58-8.6s9.58,3.56,9.58,8.3c0,5.14-3.85,8.89-9.58,8.89s-9.58-3.75-9.58-8.6ZM913.59,111.02h15.41v53.16h-15.41v-53.16Z"/>
    <path class="st4" d="M992.63,141.94h-40.21c1.48,6.62,7.11,10.67,15.22,10.67,5.63,0,9.68-1.68,13.34-5.14l8.2,8.89c-4.94,5.63-12.35,8.6-21.94,8.6-18.38,0-30.33-11.56-30.33-27.37s12.15-27.37,28.36-27.37,27.67,10.47,27.67,27.57c0,1.19-.2,2.87-.3,4.15ZM952.22,132.95h26.18c-1.09-6.72-6.13-11.07-13.04-11.07s-12.05,4.25-13.14,11.07Z"/>
  </g>
</svg>