<?xml version="1.0" encoding="UTF-8"?>
<svg id="Ebene_1" xmlns="http://www.w3.org/2000/svg" xmlns:xlink="http://www.w3.org/1999/xlink" version="1.1" viewBox="0 0 16 16">
  <!-- Generator: Adobe Illustrator 30.3.0, SVG Export Plug-In . SVG Version: 2.1.3 Build 182)  -->
  <defs>
    <style>
      .st0 {
        fill: url(#Unbenannter_Verlauf_4);
      }

      .st1 {
        fill: #fff;
      }

      .st2 {
        fill: url(#Unbenannter_Verlauf_41);
      }

      .st3 {
        fill: url(#Unbenannter_Verlauf_43);
      }

      .st4 {
        fill: url(#Unbenannter_Verlauf_45);
      }

      .st5 {
        fill: url(#Unbenannter_Verlauf_42);
      }

      .st6 {
        fill: url(#Unbenannter_Verlauf_44);
      }
    </style>
    <linearGradient id="Unbenannter_Verlauf_4" data-name="Unbenannter Verlauf 4" x1="8" y1="5.32" x2="8" y2="8.98" gradientUnits="userSpaceOnUse">
      <stop offset="0" stop-color="#ffed64"/>
      <stop offset=".03" stop-color="#ffea61"/>
      <stop offset=".69" stop-color="#ffa71b"/>
      <stop offset="1" stop-color="#ff8d00"/>
    </linearGradient>
    <linearGradient id="Unbenannter_Verlauf_41" data-name="Unbenannter Verlauf 4" x1="8" y1="2.34" x2="8" y2="4.69" xlink:href="#Unbenannter_Verlauf_4"/>
    <linearGradient id="Unbenannter_Verlauf_42" data-name="Unbenannter Verlauf 4" x1="10.99" y1="3.98" x2="10.99" y2="5.68" xlink:href="#Unbenannter_Verlauf_4"/>
    <linearGradient id="Unbenannter_Verlauf_43" data-name="Unbenannter Verlauf 4" x1="5.01" y1="3.98" x2="5.01" y2="5.69" xlink:href="#Unbenannter_Verlauf_4"/>
    <linearGradient id="Unbenannter_Verlauf_44" data-name="Unbenannter Verlauf 4" x1="3.54" y1="7.4" x2="3.54" y2="8.01" xlink:href="#Unbenannter_Verlauf_4"/>
    <linearGradient id="Unbenannter_Verlauf_45" data-name="Unbenannter Verlauf 4" x1="12.46" y1="7.4" x2="12.46" y2="8" xlink:href="#Unbenannter_Verlauf_4"/>
  </defs>
  <circle cx="8" cy="8" r="7.86"/>
  <g>
    <path class="st1" d="M7.95,12.48l-1.68-.98-2.73-1.58-.86-.49s-.05-.03-.05-.06c0-.03,0-.06.04-.08l.13-.1c.09-.06.19-.06.3-.02l1.86.72,3.06,1.2,3.58-1.45,1.3-.53c.1-.04.2-.05.28.01l.16.12s.03.03.03.05c0,.02,0,.04-.03.05l-.54.32v1.77c.14.06.21.21.17.35s-.19.24-.34.21c-.12-.03-.21-.14-.23-.25-.01-.13.04-.25.17-.31v-1.64s-2.65,1.57-2.65,1.57l-1.84,1.09s-.08.03-.12,0Z"/>
    <path class="st0" d="M9.64,6.54c-.86-.78-2.12-.85-3.06-.18-.81.58-1.2,1.58-.99,2.56,0,.02,0,.04,0,.05s-.03.02-.05.02l-.48-.17s-.04-.07-.04-.1c-.14-1.24.5-2.45,1.6-3.04.82-.44,1.8-.46,2.64-.06,1.19.57,1.89,1.85,1.72,3.16,0,.02-.02.04-.04.05l-.47.16s-.03,0-.04,0c-.01,0-.02-.03-.02-.05.19-.87-.1-1.78-.76-2.38Z"/>
    <path class="st1" d="M4.15,11.37v-.61s0-.03,0-.03.03-.01.04,0l1.37.81,2.39,1.43s.07.02.1,0l1.21-.73,2.54-1.51s.05.02.05.04v.59s-.05.05-.08.07l-3.7,2.23s-.08.03-.12,0l-3.47-2.08-.32-.19Z"/>
    <path class="st1" d="M13.15,13.48c-.3.15-.65.15-.95,0l.17-1.03c.03-.15.15-.26.29-.26.16,0,.27.09.32.25l.16,1.04Z"/>
    <path class="st2" d="M8.16,4.69h-.29c-.12,0-.18-.12-.17-.23l.2-2.03c0-.06.07-.09.12-.09.06,0,.09.05.1.11l.2,1.99c.01.12-.03.21-.15.25Z"/>
    <path class="st5" d="M10.43,5.66c-.08-.05-.15-.12-.21-.19-.05-.06-.06-.18,0-.23l1.41-1.24s.11,0,.14.04c.04.06.02.1-.02.15l-1.09,1.42c-.05.07-.14.11-.23.05Z"/>
    <path class="st3" d="M5.6,5.64c-.1.09-.2.04-.27-.04l-.75-.98-.34-.44s-.06-.08-.03-.14c.02-.04.09-.09.14-.05l1.37,1.19c.05.05.09.08.09.14,0,.07-.01.12-.06.17l-.16.14Z"/>
    <path class="st6" d="M4.5,7.83c-.01.08-.08.2-.18.18l-1.72-.4s-.06-.07-.06-.1c0-.04.03-.09.08-.1l1.68.03c.07,0,.12,0,.17.05s.07.1.06.17l-.02.17Z"/>
    <path class="st4" d="M11.71,8c-.1.02-.19-.03-.2-.12l-.03-.25c-.02-.12.09-.19.2-.19l1.68-.03c.07,0,.1.06.09.11,0,.06-.04.09-.11.1l-1.64.38Z"/>
  </g>
</svg>