<?xml version="1.0" encoding="UTF-8"?>
<svg id="Ebene_1" xmlns="http://www.w3.org/2000/svg" xmlns:xlink="http://www.w3.org/1999/xlink" version="1.1" viewBox="0 0 16 16">
  <!-- Generator: Adobe Illustrator 30.3.0, SVG Export Plug-In . SVG Version: 2.1.3 Build 182)  -->
  <defs>
    <style>
      .st0 {
        fill: url(#Unbenannter_Verlauf);
      }

      .st1 {
        fill: url(#Unbenannter_Verlauf_2);
      }

      .st2 {
        fill: url(#Unbenannter_Verlauf_4);
      }

      .st3 {
        fill: url(#Unbenannter_Verlauf_3);
      }

      .st4 {
        fill: url(#Unbenannter_Verlauf_6);
      }

      .st5 {
        fill: url(#Unbenannter_Verlauf_5);
      }

      .st6 {
        fill: #fff;
      }
    </style>
    <linearGradient id="Unbenannter_Verlauf" data-name="Unbenannter Verlauf" x1="8.02" y1="13.69" x2="8.02" y2="8.65" gradientTransform="translate(0 18) scale(1 -1)" gradientUnits="userSpaceOnUse">
      <stop offset="0" stop-color="#ffed64"/>
      <stop offset=".03" stop-color="#ffea61"/>
      <stop offset=".69" stop-color="#ffa71b"/>
      <stop offset="1" stop-color="#ff8d00"/>
    </linearGradient>
    <linearGradient id="Unbenannter_Verlauf_2" data-name="Unbenannter Verlauf 2" x1="8.01" y1="17.81" x2="8.01" y2="14.57" gradientTransform="translate(0 18) scale(1 -1)" gradientUnits="userSpaceOnUse">
      <stop offset="0" stop-color="#ffed64"/>
      <stop offset=".03" stop-color="#ffea61"/>
      <stop offset=".69" stop-color="#ffa71b"/>
      <stop offset="1" stop-color="#ff8d00"/>
    </linearGradient>
    <linearGradient id="Unbenannter_Verlauf_3" data-name="Unbenannter Verlauf 3" x1="12.12" y1="15.55" x2="12.12" y2="13.19" gradientTransform="translate(0 18) scale(1 -1)" gradientUnits="userSpaceOnUse">
      <stop offset="0" stop-color="#ffed64"/>
      <stop offset=".03" stop-color="#ffea61"/>
      <stop offset=".69" stop-color="#ffa71b"/>
      <stop offset="1" stop-color="#ff8d00"/>
    </linearGradient>
    <linearGradient id="Unbenannter_Verlauf_4" data-name="Unbenannter Verlauf 4" x1="3.87" y1="15.55" x2="3.87" y2="13.19" gradientTransform="translate(0 18) scale(1 -1)" gradientUnits="userSpaceOnUse">
      <stop offset="0" stop-color="#ffed64"/>
      <stop offset=".03" stop-color="#ffea61"/>
      <stop offset=".69" stop-color="#ffa71b"/>
      <stop offset="1" stop-color="#ff8d00"/>
    </linearGradient>
    <linearGradient id="Unbenannter_Verlauf_5" data-name="Unbenannter Verlauf 5" x1="1.85" y1="10.82" x2="1.85" y2="9.99" gradientTransform="translate(0 18) scale(1 -1)" gradientUnits="userSpaceOnUse">
      <stop offset="0" stop-color="#ffed64"/>
      <stop offset=".03" stop-color="#ffea61"/>
      <stop offset=".69" stop-color="#ffa71b"/>
      <stop offset="1" stop-color="#ff8d00"/>
    </linearGradient>
    <linearGradient id="Unbenannter_Verlauf_6" data-name="Unbenannter Verlauf 6" x1="14.14" y1="10.83" x2="14.14" y2="10" gradientTransform="translate(0 18) scale(1 -1)" gradientUnits="userSpaceOnUse">
      <stop offset="0" stop-color="#ffed64"/>
      <stop offset=".03" stop-color="#ffea61"/>
      <stop offset=".69" stop-color="#ffa71b"/>
      <stop offset="1" stop-color="#ff8d00"/>
    </linearGradient>
  </defs>
  <rect width="16" height="16"/>
  <path class="st6" d="M7.93,14.18l-2.32-1.35-3.77-2.18-1.19-.68s-.07-.04-.07-.08c0-.05,0-.08.05-.11l.18-.13c.12-.09.27-.09.41-.03l2.57,1,4.21,1.66,4.94-2,1.8-.73c.13-.05.28-.07.39.02l.22.17s.04.04.04.07c0,.02,0,.06-.04.07l-.75.44v2.45c.19.09.29.29.24.49s-.26.34-.47.29c-.17-.04-.3-.19-.31-.34-.02-.18.06-.35.24-.43v-2.26l-3.65,2.16-2.54,1.5s-.11.04-.17,0h0Z"/>
  <path class="st0" d="M10.27,5.98c-1.18-1.07-2.92-1.17-4.22-.25-1.12.79-1.65,2.18-1.36,3.53v.07s-.04.03-.07.02l-.66-.23c-.06-.02-.05-.09-.06-.14-.19-1.71.69-3.38,2.21-4.19,1.13-.6,2.48-.63,3.64-.08,1.64.78,2.61,2.55,2.37,4.36,0,.03-.03.05-.06.06l-.65.22h-.06s-.03-.04-.02-.07c.26-1.2-.14-2.46-1.05-3.28v-.02Z"/>
  <path class="st6" d="M2.69,12.65v-.84s0-.04,0-.04.04-.02.06,0l1.88,1.12,3.3,1.97s.09.02.14,0l1.67-1.01,3.5-2.08s.07.02.07.05v.82c0,.06-.07.07-.11.09l-5.11,3.07c-.06.04-.11.04-.17,0l-4.78-2.87-.45-.26v-.02Z"/>
  <path class="st6" d="M15.1,15.56c-.41.21-.9.2-1.31,0l.24-1.42c.04-.21.21-.35.4-.36.22-.01.38.13.44.34,0,0,.23,1.44.23,1.44Z"/>
  <path class="st1" d="M8.22,3.43h-.4c-.17,0-.25-.16-.23-.32l.27-2.79c0-.09.1-.13.16-.12.08,0,.13.07.14.15l.27,2.74c.02.16-.04.29-.21.34Z"/>
  <path class="st3" d="M11.36,4.77c-.11-.07-.21-.16-.29-.26-.07-.08-.09-.25,0-.32l1.95-1.71c.06-.06.16,0,.19.05.05.08.02.14-.03.21l-1.5,1.96c-.07.1-.2.15-.32.07Z"/>
  <path class="st2" d="M4.68,4.75c-.13.12-.28.06-.37-.06l-1.03-1.35-.46-.6c-.05-.07-.08-.12-.04-.19.03-.05.13-.12.19-.07l1.88,1.64c.07.06.12.12.13.2,0,.09-.01.17-.08.23,0,0-.22.2-.22.2Z"/>
  <path class="st5" d="M3.18,7.76c0,.11-.11.27-.25.24l-2.37-.55c-.06-.01-.08-.1-.08-.14,0-.06.04-.12.11-.14l2.32.05c.1,0,.17,0,.23.07s.09.14.08.23l-.03.24h0Z"/>
  <path class="st4" d="M13.11,7.99c-.13.03-.26-.04-.28-.17l-.05-.34c-.02-.17.12-.26.28-.27l2.32-.05c.09,0,.13.08.13.15,0,.09-.06.12-.14.14l-2.26.53h0Z"/>
</svg>